<?xml version="1.0" encoding="UTF-8" standalone="no"?><!DOCTYPE svg PUBLIC "-//W3C//DTD SVG 1.1//EN" "http://www.w3.org/Graphics/SVG/1.1/DTD/svg11.dtd"><svg width="100%" height="100%" viewBox="0 0 32 32" version="1.1" xmlns="http://www.w3.org/2000/svg" xmlns:xlink="http://www.w3.org/1999/xlink" xml:space="preserve" style="fill-rule:evenodd;clip-rule:evenodd;stroke-linejoin:round;stroke-miterlimit:1.41421;"><g id="Logo"><path d="M4.825,27.436l0.438,-0.317c1.169,-0.866 3.13,-2.091 3.605,-2.904c2.055,-3.516 0.313,-8.04 0.228,-9.848c-0.043,-0.889 0.111,-1.022 0.111,-1.022c0,0 -0.1,-1.469 0.309,-1.964c0.409,-0.496 1.033,-0.813 1.438,-1.08c0.287,-0.191 1.038,-0.641 1.919,-1.431c0.286,-0.791 1.607,-4.33 2.525,-4.665c1.033,-0.377 1.138,-0.242 1.991,0.47c0.246,0.205 0.728,0.609 1.314,1.095c0.471,-0.051 1.66,0.058 1.914,0.145c0.271,0.093 0.772,0.222 1.225,0.738c0.453,0.516 0.935,0.709 1.362,0.975c0.427,0.267 0.469,0.505 0.605,0.934c0.102,0.323 -0.217,0.697 -0.381,0.862c0.821,0.352 1.562,0.402 1.186,1.814c-0.235,0.883 -0.881,0.839 -1.41,0.627c0.08,0.042 0.155,0.074 0.222,0.098c0.655,0.23 1.613,0.082 1.8,1.429c0.083,0.599 -0.304,1.056 -0.583,1.177c1.041,0.117 1.983,0.976 1.082,1.436l-0.653,0.331l-0.056,0.022l0.019,-0.003l0.037,-0.019c0.258,-0.112 1.398,-0.54 2.099,0.065c0.795,0.686 1.764,2.444 -1.045,4.811c-2.81,2.367 -2.64,0.893 -5.72,3.97c-2.252,2.251 -3.117,1.028 -4.222,1.842c-0.997,0.734 -0.579,3.153 -2.227,4.831l-1.116,-0.171c0.722,-0.691 1.697,-1.803 1.983,-2.871c0,0 -1.548,1.008 -2.489,2.192l-0.332,0.471l-0.236,-0.061l0.198,-0.304l0.151,-0.05c0,0 0.301,-0.976 -0.127,0.002l-0.024,0.048l-0.559,0.211l-0.162,-0.042l-0.04,-0.014c0.299,-0.174 0.568,-0.355 0.732,-0.515c0.541,-0.529 0.91,-1.145 1.737,-1.652c0,0 -0.945,0.111 -1.871,0.671c-0.925,0.559 -2.326,0.566 -3.049,0.351c0,0 2.415,0.418 3.782,-1.157c0,0 -0.871,0.472 -1.495,0.113c0,0 0.846,0.178 2.287,-0.817c1.441,-0.994 0.896,-0.882 0.896,-0.882c0,0 -0.901,-0.253 -1.208,-0.817c0,0 1.192,0.746 2.123,-0.114c0,0 0.322,0.184 1.012,0.057c0.691,-0.127 0.78,-0.327 1.577,-0.506c0.797,-0.178 0.736,-0.361 0.736,-0.361c0,0 -0.859,-0.175 -1.634,-0.243l-0.712,-0.022c0.596,-0.077 1.962,-0.213 2.601,0.046c0.831,0.337 2.228,-1.096 2.771,-1.552c0.542,-0.457 0.976,-0.959 1.626,-1.066c0,0 -1.533,-0.759 -1.297,-2.679c0,0 -0.128,1.713 1.479,2.51c0,0 0.445,-0.072 0.737,-0.425c0,0 -1.272,-1.162 -1.389,-2.517c-0.028,-0.156 -0.025,-0.244 -0.025,-0.244l0.025,0.244c0.067,0.428 0.361,1.378 1.589,2.4c0,0 0.694,-0.061 0.859,-0.68c0.165,-0.62 -1.08,-0.425 -1.317,-1.521c-0.161,-0.749 0.19,-1.659 0.625,-2.318c0.203,-0.307 1.321,-1.683 2.513,-0.656c0,0 -1.313,-0.954 -2.286,0.63c-0.141,0.23 -0.027,0.675 0.442,1.207c0.847,0.958 1.307,1.413 1.979,0.653c0.673,-0.759 0.823,-1.411 0.52,-2.043c-0.3,-0.628 -0.663,-1.483 -2.534,-1.006c-0.687,0.332 -1.161,0.577 -2.098,1.322c-1.222,0.97 -1.713,2.115 -2.476,2.177c-0.706,0.058 -3.68,-2.318 -6.991,-2.799l-0.666,-0.069c0.598,0.033 2.723,0.07 2.769,-1.055c0,0 -1.402,0.582 -2.313,-0.532c0,0 2.201,0.615 2.748,-0.217c0,0 -0.53,-0.354 -1.21,-0.409c0,0 1.026,-0.334 1.391,-0.263c0,0 0.049,-0.618 0.252,-0.896c0,0 -0.096,0.567 0.683,0.54c0.779,-0.027 1.239,-0.888 1.256,-1.604c0,0 0.535,1.95 2.168,2.981c1.633,1.031 2.498,1.237 3.545,0.976c1.047,-0.261 1.109,-0.542 1.109,-0.542c0,0 -0.596,-0.243 -0.651,-1.069c0,0 0.348,1.39 1.203,0.78c0.585,-0.417 -0.642,-1.067 -1.593,-1.037c-0.633,0.019 -1.049,-0.625 -1.049,-0.625c0,0 -0.608,0.531 -0.636,0.644c0,0 0.193,-0.56 0.402,-0.782c0,0 -0.49,0.165 -0.805,0.488c0,0 0.342,-0.577 0.549,-0.785c0,0 -1.44,1.011 -1.966,-0.533c-0.527,-1.544 -0.659,-3.055 -1.192,-3.255c0,0 0.166,-0.262 0.451,-0.128c0,0 -0.342,-0.63 -0.695,-0.63c-0.354,0 -4.473,1.675 -5.407,2.13c0,0 2.397,-1.106 2.7,-1.306c0,0 -0.158,-0.875 -0.265,-1.286l0.405,0.987c0,0 0.162,-0.338 0.074,-1.127c0,0 0.148,1.134 0.141,1.322c0,0 1.419,-0.634 2.195,-0.897c0.666,-0.226 1.507,1.443 2.336,2.599c0.062,-0.138 0.269,-0.63 0.178,-0.762c-0.98,-1.415 -0.906,-1.639 -1.324,-2.071c-0.356,-0.369 -0.733,-0.555 -0.848,-0.752c-0.114,-0.197 -0.335,-0.268 -0.421,-0.062c-0.199,0.475 -0.485,0.79 -0.485,0.79c0,0 -0.621,-2.506 -1.149,-2.784c0,0 0.292,-0.151 0.78,0.144c0,0 0.124,-0.281 -0.191,-0.465c0,0 -0.578,-0.995 -3.815,2.266c-0.483,0.488 -0.913,0.898 -1.297,1.246l-0.009,0.019l0.006,-0.017c-2.341,2.135 -2.879,1.904 -3.06,2.565c-0.129,0.468 -0.1,0.6 -0.1,1.234c0,0 0.167,-0.326 1.257,-0.437c0.834,-0.085 1.346,-0.365 1.346,-0.365c0,0 -0.284,0.398 -1.576,0.728c-1.672,0.427 -1.246,1.871 -1.193,2.622c0.052,0.751 1.235,5.729 -0.334,8.856c-0.545,1.086 -1.841,2.421 -3.782,3.732l-0.557,-0.506Zm18.944,-15.225c0,0 1.702,0.434 1.097,1.475c-0.606,1.041 -1.412,0.193 -1.806,-0.378c0,0 -0.09,-0.851 0.709,-1.097Zm-2.367,-0.752c0.135,0.19 0.271,0.366 0.405,0.517c0.384,0.432 0.698,0.933 1.009,1.378c0.034,-0.623 0.626,-1.209 0.626,-1.209c-0.699,-0.302 -1.464,-0.979 -1.464,-0.979l-0.208,0.293l0.142,-0.39l-0.162,-0.216l-0.348,0.606Zm-3.087,-5.862c0.742,0.686 1.001,1.736 1.24,2.142c0.27,0.463 0.886,0.585 1.323,1.603c0.372,0.867 1.067,1.623 1.687,2.105c0.277,0.043 0.92,0.175 0.7,0.011c-0.499,-0.373 -1.386,-1.112 -1.317,-1.509c0.088,-0.513 0.281,-0.737 0.58,-0.87l-0.071,-0.066l-0.144,-0.071l-0.232,-0.267c-0.383,-0.343 -0.907,-0.784 -1.107,-0.837c-0.158,-0.042 -0.376,0.132 -0.545,0.305l-0.149,0.164l0.519,-0.641l-0.182,-0.139l-0.629,0.502c0,0 0.532,-0.474 0.529,-0.604c0,0 -1.485,-1.265 -1.91,-1.615c-0.086,-0.071 -0.191,-0.145 -0.292,-0.213Zm4.426,3.616c0,0 0.782,0.555 1.016,0.608c0.233,0.052 0.82,0.428 0.343,0.892c-0.476,0.463 -0.967,0.407 -1.085,0.324c-0.117,-0.083 -0.829,-0.788 -0.873,-1.115c-0.044,-0.328 0.314,-0.768 0.599,-0.709Zm0.055,-0.146c0.209,-0.002 0.654,-0.26 0.708,-0.638c0.062,-0.441 -1.074,-0.907 -1.074,-0.907c-0.406,0.197 -0.512,0.595 -0.488,0.787c0.007,0.059 0.071,0.142 0.16,0.231c0.276,0.218 0.515,0.4 0.694,0.527Zm-6.402,-3.356c0.015,-0.193 0.078,-1.434 -0.644,-1.434c-0.745,0 -2.28,3.319 -2.85,4.569c0.35,-0.314 0.72,-0.681 1.089,-1.107c0.705,-0.813 1.612,-1.57 2.405,-2.028Zm2.321,0.069c0.967,0.805 2.213,1.834 3.138,2.565c-0.12,-0.489 0.436,-0.993 0.436,-0.993c-0.016,-0.029 -0.269,-0.334 -0.364,-0.439c-0.027,-0.03 -0.328,0.29 -0.328,0.29c0,0 0.256,-0.357 0.225,-0.391c-0.09,-0.098 -0.071,-0.063 -0.089,-0.087c-0.036,-0.046 -0.575,0.375 -0.575,0.375c0,0 0.526,-0.445 0.458,-0.516c-0.757,-0.789 -2.47,-0.812 -2.901,-0.804Z"/><path d="M16.207,0.001l0.206,0.004l0.205,0.007l0.205,0.009l0.204,0.011l0.203,0.015l0.203,0.016l0.202,0.02l0.201,0.021l0.201,0.025l0.199,0.026l0.199,0.029l0.198,0.032l0.198,0.034l0.196,0.037l0.196,0.038l0.195,0.041l0.194,0.044l0.193,0.046l0.192,0.048l0.191,0.051l0.19,0.052l0.189,0.055l0.189,0.058l0.187,0.059l0.186,0.062l0.186,0.064l0.184,0.067l0.183,0.068l0.182,0.071l0.181,0.072l0.18,0.075l0.179,0.077l0.178,0.079l0.177,0.082l0.175,0.083l0.174,0.085l0.173,0.087l0.172,0.09l0.171,0.091l0.169,0.094l0.168,0.095l0.167,0.097l0.166,0.1l0.164,0.101l0.163,0.103l0.162,0.105l0.16,0.107l0.159,0.109l0.158,0.111l0.156,0.112l0.155,0.114l0.153,0.116l0.152,0.118l0.15,0.12l0.149,0.122l0.147,0.123l0.146,0.125l0.145,0.126l0.143,0.129l0.141,0.13l0.14,0.131l0.138,0.134l0.136,0.135l0.135,0.136l0.134,0.138l0.131,0.14l0.13,0.141l0.129,0.143l0.126,0.145l0.125,0.146l0.123,0.147l0.122,0.149l0.12,0.15l0.118,0.152l0.116,0.153l0.114,0.155l0.112,0.156l0.111,0.158l0.109,0.159l0.107,0.16l0.105,0.162l0.103,0.163l0.101,0.164l0.1,0.166l0.097,0.167l0.095,0.168l0.094,0.169l0.091,0.171l0.09,0.172l0.087,0.173l0.085,0.174l0.083,0.175l0.082,0.177l0.079,0.178l0.077,0.179l0.075,0.18l0.072,0.181l0.071,0.182l0.068,0.183l0.067,0.184l0.064,0.186l0.062,0.186l0.059,0.187l0.058,0.189l0.055,0.189l0.052,0.19l0.051,0.191l0.048,0.192l0.046,0.193l0.044,0.194l0.041,0.195l0.038,0.196l0.037,0.196l0.034,0.198l0.032,0.198l0.029,0.199l0.026,0.199l0.025,0.201l0.021,0.201l0.02,0.202l0.016,0.203l0.015,0.203l0.011,0.204l0.009,0.205l0.007,0.205l0.004,0.206l0.001,0.207l-0.001,0.207l-0.004,0.206l-0.007,0.205l-0.009,0.205l-0.011,0.204l-0.015,0.203l-0.016,0.203l-0.02,0.202l-0.021,0.201l-0.025,0.201l-0.026,0.199l-0.029,0.199l-0.032,0.198l-0.034,0.198l-0.037,0.196l-0.038,0.196l-0.041,0.195l-0.044,0.194l-0.046,0.193l-0.048,0.192l-0.051,0.191l-0.052,0.19l-0.055,0.189l-0.058,0.189l-0.059,0.187l-0.062,0.186l-0.064,0.186l-0.067,0.184l-0.068,0.183l-0.071,0.182l-0.072,0.181l-0.075,0.18l-0.077,0.179l-0.079,0.178l-0.082,0.177l-0.083,0.175l-0.085,0.174l-0.087,0.173l-0.09,0.172l-0.091,0.171l-0.094,0.169l-0.095,0.168l-0.097,0.167l-0.1,0.166l-0.101,0.164l-0.103,0.163l-0.105,0.162l-0.107,0.16l-0.109,0.159l-0.111,0.158l-0.112,0.156l-0.114,0.155l-0.116,0.153l-0.118,0.152l-0.12,0.15l-0.122,0.149l-0.123,0.147l-0.125,0.146l-0.126,0.145l-0.129,0.143l-0.13,0.141l-0.131,0.14l-0.134,0.138l-0.135,0.136l-0.136,0.135l-0.138,0.134l-0.14,0.131l-0.141,0.13l-0.143,0.129l-0.145,0.126l-0.146,0.125l-0.147,0.123l-0.149,0.122l-0.15,0.12l-0.152,0.118l-0.153,0.116l-0.155,0.114l-0.156,0.112l-0.158,0.111l-0.159,0.109l-0.16,0.107l-0.162,0.105l-0.163,0.103l-0.164,0.101l-0.166,0.1l-0.167,0.097l-0.168,0.095l-0.169,0.094l-0.171,0.091l-0.172,0.09l-0.173,0.087l-0.174,0.085l-0.175,0.083l-0.177,0.082l-0.178,0.079l-0.179,0.077l-0.18,0.075l-0.181,0.072l-0.182,0.071l-0.183,0.068l-0.184,0.067l-0.186,0.064l-0.186,0.062l-0.187,0.059l-0.189,0.058l-0.189,0.055l-0.19,0.052l-0.191,0.051l-0.192,0.048l-0.193,0.046l-0.194,0.044l-0.195,0.041l-0.196,0.038l-0.196,0.037l-0.198,0.034l-0.198,0.032l-0.199,0.029l-0.199,0.026l-0.201,0.025l-0.201,0.021l-0.202,0.02l-0.203,0.016l-0.203,0.015l-0.204,0.011l-0.205,0.009l-0.205,0.007l-0.206,0.004l-0.207,0.001l-0.207,-0.001l-0.206,-0.004l-0.205,-0.007l-0.205,-0.009l-0.204,-0.011l-0.203,-0.015l-0.203,-0.016l-0.202,-0.02l-0.201,-0.021l-0.201,-0.025l-0.199,-0.026l-0.199,-0.029l-0.198,-0.032l-0.198,-0.034l-0.196,-0.037l-0.196,-0.038l-0.195,-0.041l-0.194,-0.044l-0.193,-0.046l-0.192,-0.048l-0.191,-0.051l-0.19,-0.052l-0.189,-0.055l-0.189,-0.058l-0.187,-0.059l-0.186,-0.062l-0.186,-0.064l-0.184,-0.067l-0.183,-0.068l-0.182,-0.071l-0.181,-0.072l-0.18,-0.075l-0.179,-0.077l-0.178,-0.079l-0.177,-0.082l-0.175,-0.083l-0.174,-0.085l-0.173,-0.087l-0.172,-0.09l-0.171,-0.091l-0.169,-0.094l-0.168,-0.095l-0.167,-0.097l-0.166,-0.1l-0.164,-0.101l-0.163,-0.103l-0.162,-0.105l-0.16,-0.107l-0.159,-0.109l-0.158,-0.111l-0.156,-0.112l-0.155,-0.114l-0.153,-0.116l-0.152,-0.118l-0.15,-0.12l-0.149,-0.122l-0.147,-0.123l-0.146,-0.125l-0.145,-0.126l-0.143,-0.129l-0.141,-0.13l-0.14,-0.131l-0.138,-0.134l-0.136,-0.135l-0.135,-0.136l-0.134,-0.138l-0.131,-0.14l-0.13,-0.141l-0.129,-0.143l-0.126,-0.145l-0.125,-0.146l-0.123,-0.147l-0.122,-0.149l-0.12,-0.15l-0.118,-0.152l-0.116,-0.153l-0.114,-0.155l-0.112,-0.156l-0.111,-0.158l-0.109,-0.159l-0.107,-0.16l-0.105,-0.162l-0.103,-0.163l-0.101,-0.164l-0.1,-0.166l-0.097,-0.167l-0.095,-0.168l-0.094,-0.169l-0.091,-0.171l-0.09,-0.172l-0.087,-0.173l-0.085,-0.174l-0.083,-0.175l-0.082,-0.177l-0.079,-0.178l-0.077,-0.179l-0.075,-0.18l-0.072,-0.181l-0.071,-0.182l-0.068,-0.183l-0.067,-0.184l-0.064,-0.186l-0.062,-0.186l-0.059,-0.187l-0.058,-0.189l-0.055,-0.189l-0.052,-0.19l-0.051,-0.191l-0.048,-0.192l-0.046,-0.193l-0.044,-0.194l-0.041,-0.195l-0.038,-0.196l-0.037,-0.196l-0.034,-0.198l-0.032,-0.198l-0.029,-0.199l-0.026,-0.199l-0.025,-0.201l-0.021,-0.201l-0.02,-0.202l-0.016,-0.203l-0.015,-0.203l-0.011,-0.204l-0.009,-0.205l-0.007,-0.205l-0.004,-0.206l-0.001,-0.207l0.001,-0.207l0.004,-0.206l0.007,-0.205l0.009,-0.205l0.011,-0.204l0.015,-0.203l0.016,-0.203l0.02,-0.202l0.021,-0.201l0.025,-0.201l0.026,-0.199l0.029,-0.199l0.032,-0.198l0.034,-0.198l0.037,-0.196l0.038,-0.196l0.041,-0.195l0.044,-0.194l0.046,-0.193l0.048,-0.192l0.051,-0.191l0.052,-0.19l0.055,-0.189l0.058,-0.189l0.059,-0.187l0.062,-0.186l0.064,-0.186l0.067,-0.184l0.068,-0.183l0.071,-0.182l0.072,-0.181l0.075,-0.18l0.077,-0.179l0.079,-0.178l0.082,-0.177l0.083,-0.175l0.085,-0.174l0.087,-0.173l0.09,-0.172l0.091,-0.171l0.094,-0.169l0.095,-0.168l0.097,-0.167l0.1,-0.166l0.101,-0.164l0.103,-0.163l0.105,-0.162l0.107,-0.16l0.109,-0.159l0.111,-0.158l0.112,-0.156l0.114,-0.155l0.116,-0.153l0.118,-0.152l0.12,-0.15l0.122,-0.149l0.123,-0.147l0.125,-0.146l0.126,-0.145l0.129,-0.143l0.13,-0.141l0.131,-0.14l0.134,-0.138l0.135,-0.136l0.136,-0.135l0.138,-0.134l0.14,-0.131l0.141,-0.13l0.143,-0.129l0.145,-0.126l0.146,-0.125l0.147,-0.123l0.149,-0.122l0.15,-0.12l0.152,-0.118l0.153,-0.116l0.155,-0.114l0.156,-0.112l0.158,-0.111l0.159,-0.109l0.16,-0.107l0.162,-0.105l0.163,-0.103l0.164,-0.101l0.166,-0.1l0.167,-0.097l0.168,-0.095l0.169,-0.094l0.171,-0.091l0.172,-0.09l0.173,-0.087l0.174,-0.085l0.175,-0.083l0.177,-0.082l0.178,-0.079l0.179,-0.077l0.18,-0.075l0.181,-0.072l0.182,-0.071l0.183,-0.068l0.184,-0.067l0.186,-0.064l0.186,-0.062l0.187,-0.059l0.189,-0.058l0.189,-0.055l0.19,-0.052l0.191,-0.051l0.192,-0.048l0.193,-0.046l0.194,-0.044l0.195,-0.041l0.196,-0.038l0.196,-0.037l0.198,-0.034l0.198,-0.032l0.199,-0.029l0.199,-0.026l0.201,-0.025l0.201,-0.021l0.202,-0.02l0.203,-0.016l0.203,-0.015l0.204,-0.011l0.205,-0.009l0.205,-0.007l0.206,-0.004l0.207,-0.001l0.207,0.001Zm-0.401,1l-0.193,0.004l-0.193,0.006l-0.192,0.009l-0.192,0.011l-0.19,0.013l-0.19,0.016l-0.19,0.018l-0.188,0.02l-0.188,0.023l-0.188,0.025l-0.186,0.027l-0.186,0.03l-0.185,0.031l-0.184,0.035l-0.183,0.036l-0.183,0.039l-0.181,0.04l-0.181,0.043l-0.18,0.046l-0.179,0.047l-0.179,0.049l-0.177,0.052l-0.176,0.054l-0.176,0.055l-0.175,0.058l-0.173,0.06l-0.173,0.063l-0.172,0.064l-0.17,0.066l-0.17,0.068l-0.169,0.07l-0.167,0.072l-0.167,0.074l-0.165,0.077l-0.165,0.078l-0.163,0.08l-0.162,0.081l-0.161,0.084l-0.16,0.086l-0.159,0.087l-0.158,0.09l-0.156,0.091l-0.156,0.093l-0.154,0.095l-0.152,0.097l-0.152,0.098l-0.15,0.101l-0.149,0.102l-0.148,0.103l-0.146,0.106l-0.146,0.107l-0.143,0.109l-0.143,0.111l-0.141,0.112l-0.139,0.114l-0.139,0.115l-0.137,0.117l-0.135,0.119l-0.134,0.121l-0.133,0.122l-0.131,0.123l-0.129,0.125l-0.128,0.127l-0.127,0.128l-0.125,0.129l-0.123,0.131l-0.122,0.133l-0.121,0.134l-0.119,0.135l-0.117,0.137l-0.115,0.139l-0.114,0.139l-0.112,0.141l-0.111,0.143l-0.109,0.143l-0.107,0.146l-0.106,0.146l-0.103,0.148l-0.102,0.149l-0.101,0.15l-0.098,0.152l-0.097,0.152l-0.095,0.154l-0.093,0.156l-0.091,0.156l-0.09,0.158l-0.087,0.159l-0.086,0.16l-0.084,0.161l-0.081,0.162l-0.08,0.163l-0.078,0.165l-0.077,0.165l-0.074,0.167l-0.072,0.167l-0.07,0.169l-0.068,0.17l-0.066,0.17l-0.064,0.172l-0.063,0.173l-0.06,0.173l-0.058,0.175l-0.055,0.176l-0.054,0.176l-0.052,0.177l-0.049,0.179l-0.047,0.179l-0.046,0.18l-0.043,0.181l-0.04,0.181l-0.039,0.183l-0.036,0.183l-0.035,0.184l-0.031,0.185l-0.03,0.186l-0.027,0.186l-0.025,0.188l-0.023,0.188l-0.02,0.188l-0.018,0.19l-0.016,0.19l-0.013,0.19l-0.011,0.192l-0.009,0.192l-0.006,0.193l-0.004,0.193l-0.001,0.194l0.001,0.194l0.004,0.193l0.006,0.193l0.009,0.192l0.011,0.192l0.013,0.19l0.016,0.19l0.018,0.19l0.02,0.188l0.023,0.188l0.025,0.188l0.027,0.186l0.03,0.186l0.031,0.185l0.035,0.184l0.036,0.183l0.039,0.183l0.04,0.181l0.043,0.181l0.046,0.18l0.047,0.179l0.049,0.179l0.052,0.177l0.054,0.176l0.055,0.176l0.058,0.175l0.06,0.173l0.063,0.173l0.064,0.172l0.066,0.17l0.068,0.17l0.07,0.169l0.072,0.167l0.074,0.167l0.077,0.165l0.078,0.165l0.08,0.163l0.081,0.162l0.084,0.161l0.086,0.16l0.087,0.159l0.09,0.158l0.091,0.156l0.093,0.156l0.095,0.154l0.097,0.152l0.098,0.152l0.101,0.15l0.102,0.149l0.103,0.148l0.106,0.146l0.107,0.146l0.109,0.143l0.111,0.143l0.112,0.141l0.114,0.139l0.115,0.139l0.117,0.137l0.119,0.135l0.121,0.134l0.122,0.133l0.123,0.131l0.125,0.129l0.127,0.128l0.128,0.127l0.129,0.125l0.131,0.123l0.133,0.122l0.134,0.121l0.135,0.119l0.137,0.117l0.139,0.115l0.139,0.114l0.141,0.112l0.143,0.111l0.143,0.109l0.146,0.107l0.146,0.106l0.148,0.103l0.149,0.102l0.15,0.101l0.152,0.098l0.152,0.097l0.154,0.095l0.156,0.093l0.156,0.091l0.158,0.09l0.159,0.087l0.16,0.086l0.161,0.084l0.162,0.081l0.163,0.08l0.165,0.078l0.165,0.077l0.167,0.074l0.167,0.072l0.169,0.07l0.17,0.068l0.17,0.066l0.172,0.064l0.173,0.063l0.173,0.06l0.175,0.058l0.176,0.055l0.176,0.054l0.177,0.052l0.179,0.049l0.179,0.047l0.18,0.046l0.181,0.043l0.181,0.04l0.183,0.039l0.183,0.036l0.184,0.035l0.185,0.031l0.186,0.03l0.186,0.027l0.188,0.025l0.188,0.023l0.188,0.02l0.19,0.018l0.19,0.016l0.19,0.013l0.192,0.011l0.192,0.009l0.193,0.006l0.193,0.004l0.194,0.001l0.194,-0.001l0.193,-0.004l0.193,-0.006l0.192,-0.009l0.192,-0.011l0.19,-0.013l0.19,-0.016l0.19,-0.018l0.188,-0.02l0.188,-0.023l0.188,-0.025l0.186,-0.027l0.186,-0.03l0.185,-0.031l0.184,-0.035l0.183,-0.036l0.183,-0.039l0.181,-0.04l0.181,-0.043l0.18,-0.046l0.179,-0.047l0.179,-0.049l0.177,-0.052l0.176,-0.054l0.176,-0.055l0.175,-0.058l0.173,-0.06l0.173,-0.063l0.172,-0.064l0.17,-0.066l0.17,-0.068l0.169,-0.07l0.167,-0.072l0.167,-0.074l0.165,-0.077l0.165,-0.078l0.163,-0.08l0.162,-0.081l0.161,-0.084l0.16,-0.086l0.159,-0.087l0.158,-0.09l0.156,-0.091l0.156,-0.093l0.154,-0.095l0.152,-0.097l0.152,-0.098l0.15,-0.101l0.149,-0.102l0.148,-0.103l0.146,-0.106l0.146,-0.107l0.143,-0.109l0.143,-0.111l0.141,-0.112l0.139,-0.114l0.139,-0.115l0.137,-0.117l0.135,-0.119l0.134,-0.121l0.133,-0.122l0.131,-0.123l0.129,-0.125l0.128,-0.127l0.127,-0.128l0.125,-0.129l0.123,-0.131l0.122,-0.133l0.121,-0.134l0.119,-0.135l0.117,-0.137l0.115,-0.139l0.114,-0.139l0.112,-0.141l0.111,-0.143l0.109,-0.143l0.107,-0.146l0.106,-0.146l0.103,-0.148l0.102,-0.149l0.101,-0.15l0.098,-0.152l0.097,-0.152l0.095,-0.154l0.093,-0.156l0.091,-0.156l0.09,-0.158l0.087,-0.159l0.086,-0.16l0.084,-0.161l0.081,-0.162l0.08,-0.163l0.078,-0.165l0.077,-0.165l0.074,-0.167l0.072,-0.167l0.07,-0.169l0.068,-0.17l0.066,-0.17l0.064,-0.172l0.063,-0.173l0.06,-0.173l0.058,-0.175l0.055,-0.176l0.054,-0.176l0.052,-0.177l0.049,-0.179l0.047,-0.179l0.046,-0.18l0.043,-0.181l0.04,-0.181l0.039,-0.183l0.036,-0.183l0.035,-0.184l0.031,-0.185l0.03,-0.186l0.027,-0.186l0.025,-0.188l0.023,-0.188l0.02,-0.188l0.018,-0.19l0.016,-0.19l0.013,-0.19l0.011,-0.192l0.009,-0.192l0.006,-0.193l0.004,-0.193l0.001,-0.194l-0.001,-0.194l-0.004,-0.193l-0.006,-0.193l-0.009,-0.192l-0.011,-0.192l-0.013,-0.19l-0.016,-0.19l-0.018,-0.19l-0.02,-0.188l-0.023,-0.188l-0.025,-0.188l-0.027,-0.186l-0.03,-0.186l-0.031,-0.185l-0.035,-0.184l-0.036,-0.183l-0.039,-0.183l-0.04,-0.181l-0.043,-0.181l-0.046,-0.18l-0.047,-0.179l-0.049,-0.179l-0.052,-0.177l-0.054,-0.176l-0.055,-0.176l-0.058,-0.175l-0.06,-0.173l-0.063,-0.173l-0.064,-0.172l-0.066,-0.17l-0.068,-0.17l-0.07,-0.169l-0.072,-0.167l-0.074,-0.167l-0.077,-0.165l-0.078,-0.165l-0.08,-0.163l-0.081,-0.162l-0.084,-0.161l-0.086,-0.16l-0.087,-0.159l-0.09,-0.158l-0.091,-0.156l-0.093,-0.156l-0.095,-0.154l-0.097,-0.152l-0.098,-0.152l-0.101,-0.15l-0.102,-0.149l-0.103,-0.148l-0.106,-0.146l-0.107,-0.146l-0.109,-0.143l-0.111,-0.143l-0.112,-0.141l-0.114,-0.139l-0.115,-0.139l-0.117,-0.137l-0.119,-0.135l-0.121,-0.134l-0.122,-0.133l-0.123,-0.131l-0.125,-0.129l-0.127,-0.128l-0.128,-0.127l-0.129,-0.125l-0.131,-0.123l-0.133,-0.122l-0.134,-0.121l-0.135,-0.119l-0.137,-0.117l-0.139,-0.115l-0.139,-0.114l-0.141,-0.112l-0.143,-0.111l-0.143,-0.109l-0.146,-0.107l-0.146,-0.106l-0.148,-0.103l-0.149,-0.102l-0.15,-0.101l-0.152,-0.098l-0.152,-0.097l-0.154,-0.095l-0.156,-0.093l-0.156,-0.091l-0.158,-0.09l-0.159,-0.087l-0.16,-0.086l-0.161,-0.084l-0.162,-0.081l-0.163,-0.08l-0.165,-0.078l-0.165,-0.077l-0.167,-0.074l-0.167,-0.072l-0.169,-0.07l-0.17,-0.068l-0.17,-0.066l-0.172,-0.064l-0.173,-0.063l-0.173,-0.06l-0.175,-0.058l-0.176,-0.055l-0.176,-0.054l-0.177,-0.052l-0.179,-0.049l-0.179,-0.047l-0.18,-0.046l-0.181,-0.043l-0.181,-0.04l-0.183,-0.039l-0.183,-0.036l-0.184,-0.035l-0.185,-0.031l-0.186,-0.03l-0.186,-0.027l-0.188,-0.025l-0.188,-0.023l-0.188,-0.02l-0.19,-0.018l-0.19,-0.016l-0.19,-0.013l-0.192,-0.011l-0.192,-0.009l-0.193,-0.006l-0.193,-0.004l-0.194,-0.001l-0.194,0.001Z"/></g></svg>